<mxfile host="app.diagrams.net" agent="Mozilla/5.0 (Windows NT 10.0; Win64; x64) AppleWebKit/537.36 (KHTML, like Gecko) Chrome/128.0.0.0 Safari/537.36" version="24.7.14">
  <diagram id="R4no3Dexe_NCuySghjjh" name="Page-1">
    <mxGraphModel dx="2350" dy="1846" grid="1" gridSize="10" guides="1" tooltips="1" connect="1" arrows="1" fold="1" page="1" pageScale="1" pageWidth="850" pageHeight="1100" math="0" shadow="0">
      <root>
        <mxCell id="0" />
        <mxCell id="1" parent="0" />
        <mxCell id="h9IFwPZihJ9QjBAD0U2E-7" style="rounded=0;orthogonalLoop=1;jettySize=auto;html=1;exitX=0.75;exitY=1;exitDx=0;exitDy=0;entryX=0.5;entryY=0;entryDx=0;entryDy=0;" edge="1" parent="1" source="h9IFwPZihJ9QjBAD0U2E-1" target="h9IFwPZihJ9QjBAD0U2E-2">
          <mxGeometry relative="1" as="geometry" />
        </mxCell>
        <mxCell id="h9IFwPZihJ9QjBAD0U2E-8" style="edgeStyle=none;shape=connector;rounded=0;orthogonalLoop=1;jettySize=auto;html=1;exitX=0.25;exitY=1;exitDx=0;exitDy=0;entryX=0.5;entryY=0;entryDx=0;entryDy=0;strokeColor=default;align=center;verticalAlign=middle;fontFamily=Helvetica;fontSize=11;fontColor=default;labelBackgroundColor=default;endArrow=classic;" edge="1" parent="1" source="h9IFwPZihJ9QjBAD0U2E-1" target="h9IFwPZihJ9QjBAD0U2E-3">
          <mxGeometry relative="1" as="geometry" />
        </mxCell>
        <mxCell id="h9IFwPZihJ9QjBAD0U2E-12" style="edgeStyle=none;shape=connector;rounded=0;orthogonalLoop=1;jettySize=auto;html=1;exitX=0;exitY=0;exitDx=0;exitDy=0;entryX=0.5;entryY=1;entryDx=0;entryDy=0;strokeColor=default;align=center;verticalAlign=middle;fontFamily=Helvetica;fontSize=11;fontColor=default;labelBackgroundColor=default;endArrow=classic;" edge="1" parent="1" source="h9IFwPZihJ9QjBAD0U2E-1" target="h9IFwPZihJ9QjBAD0U2E-9">
          <mxGeometry relative="1" as="geometry" />
        </mxCell>
        <mxCell id="h9IFwPZihJ9QjBAD0U2E-13" style="edgeStyle=none;shape=connector;rounded=0;orthogonalLoop=1;jettySize=auto;html=1;exitX=0.5;exitY=0;exitDx=0;exitDy=0;entryX=0.5;entryY=1;entryDx=0;entryDy=0;strokeColor=default;align=center;verticalAlign=middle;fontFamily=Helvetica;fontSize=11;fontColor=default;labelBackgroundColor=default;endArrow=classic;" edge="1" parent="1" source="h9IFwPZihJ9QjBAD0U2E-1" target="h9IFwPZihJ9QjBAD0U2E-10">
          <mxGeometry relative="1" as="geometry" />
        </mxCell>
        <mxCell id="h9IFwPZihJ9QjBAD0U2E-14" style="edgeStyle=none;shape=connector;rounded=0;orthogonalLoop=1;jettySize=auto;html=1;exitX=1;exitY=0;exitDx=0;exitDy=0;entryX=0.5;entryY=1;entryDx=0;entryDy=0;strokeColor=default;align=center;verticalAlign=middle;fontFamily=Helvetica;fontSize=11;fontColor=default;labelBackgroundColor=default;endArrow=classic;" edge="1" parent="1" source="h9IFwPZihJ9QjBAD0U2E-1" target="h9IFwPZihJ9QjBAD0U2E-11">
          <mxGeometry relative="1" as="geometry" />
        </mxCell>
        <mxCell id="h9IFwPZihJ9QjBAD0U2E-1" value="User" style="rounded=0;whiteSpace=wrap;html=1;" vertex="1" parent="1">
          <mxGeometry x="250" y="120" width="120" height="60" as="geometry" />
        </mxCell>
        <mxCell id="h9IFwPZihJ9QjBAD0U2E-28" style="edgeStyle=none;shape=connector;rounded=0;orthogonalLoop=1;jettySize=auto;html=1;exitX=0.5;exitY=1;exitDx=0;exitDy=0;entryX=0.5;entryY=0;entryDx=0;entryDy=0;strokeColor=default;align=center;verticalAlign=middle;fontFamily=Helvetica;fontSize=11;fontColor=default;labelBackgroundColor=default;endArrow=classic;" edge="1" parent="1" source="h9IFwPZihJ9QjBAD0U2E-2" target="h9IFwPZihJ9QjBAD0U2E-27">
          <mxGeometry relative="1" as="geometry" />
        </mxCell>
        <mxCell id="h9IFwPZihJ9QjBAD0U2E-30" style="edgeStyle=none;shape=connector;rounded=0;orthogonalLoop=1;jettySize=auto;html=1;exitX=1;exitY=0;exitDx=0;exitDy=0;entryX=0;entryY=1;entryDx=0;entryDy=0;strokeColor=default;align=center;verticalAlign=middle;fontFamily=Helvetica;fontSize=11;fontColor=default;labelBackgroundColor=default;endArrow=classic;" edge="1" parent="1" source="h9IFwPZihJ9QjBAD0U2E-2" target="h9IFwPZihJ9QjBAD0U2E-22">
          <mxGeometry relative="1" as="geometry" />
        </mxCell>
        <mxCell id="h9IFwPZihJ9QjBAD0U2E-31" style="edgeStyle=none;shape=connector;rounded=0;orthogonalLoop=1;jettySize=auto;html=1;exitX=1;exitY=0.25;exitDx=0;exitDy=0;entryX=0;entryY=0.5;entryDx=0;entryDy=0;strokeColor=default;align=center;verticalAlign=middle;fontFamily=Helvetica;fontSize=11;fontColor=default;labelBackgroundColor=default;endArrow=classic;" edge="1" parent="1" source="h9IFwPZihJ9QjBAD0U2E-2" target="h9IFwPZihJ9QjBAD0U2E-21">
          <mxGeometry relative="1" as="geometry" />
        </mxCell>
        <mxCell id="h9IFwPZihJ9QjBAD0U2E-35" style="edgeStyle=none;shape=connector;rounded=0;orthogonalLoop=1;jettySize=auto;html=1;exitX=1;exitY=1;exitDx=0;exitDy=0;entryX=0;entryY=0.5;entryDx=0;entryDy=0;strokeColor=default;align=center;verticalAlign=middle;fontFamily=Helvetica;fontSize=11;fontColor=default;labelBackgroundColor=default;endArrow=classic;" edge="1" parent="1" source="h9IFwPZihJ9QjBAD0U2E-2" target="h9IFwPZihJ9QjBAD0U2E-34">
          <mxGeometry relative="1" as="geometry" />
        </mxCell>
        <mxCell id="h9IFwPZihJ9QjBAD0U2E-2" value="Service_Provider" style="rounded=0;whiteSpace=wrap;html=1;" vertex="1" parent="1">
          <mxGeometry x="340" y="260" width="120" height="60" as="geometry" />
        </mxCell>
        <mxCell id="h9IFwPZihJ9QjBAD0U2E-16" style="edgeStyle=none;shape=connector;rounded=0;orthogonalLoop=1;jettySize=auto;html=1;exitX=0;exitY=0.5;exitDx=0;exitDy=0;entryX=1;entryY=0.5;entryDx=0;entryDy=0;strokeColor=default;align=center;verticalAlign=middle;fontFamily=Helvetica;fontSize=11;fontColor=default;labelBackgroundColor=default;endArrow=classic;" edge="1" parent="1" source="h9IFwPZihJ9QjBAD0U2E-3" target="h9IFwPZihJ9QjBAD0U2E-15">
          <mxGeometry relative="1" as="geometry" />
        </mxCell>
        <mxCell id="h9IFwPZihJ9QjBAD0U2E-25" style="edgeStyle=none;shape=connector;rounded=0;orthogonalLoop=1;jettySize=auto;html=1;exitX=0.5;exitY=1;exitDx=0;exitDy=0;entryX=0.5;entryY=0;entryDx=0;entryDy=0;strokeColor=default;align=center;verticalAlign=middle;fontFamily=Helvetica;fontSize=11;fontColor=default;labelBackgroundColor=default;endArrow=classic;" edge="1" parent="1" source="h9IFwPZihJ9QjBAD0U2E-3" target="h9IFwPZihJ9QjBAD0U2E-23">
          <mxGeometry relative="1" as="geometry" />
        </mxCell>
        <mxCell id="h9IFwPZihJ9QjBAD0U2E-3" value="Customer" style="rounded=0;whiteSpace=wrap;html=1;" vertex="1" parent="1">
          <mxGeometry x="160" y="260" width="120" height="60" as="geometry" />
        </mxCell>
        <mxCell id="h9IFwPZihJ9QjBAD0U2E-4" value="Pet" style="rounded=0;whiteSpace=wrap;html=1;" vertex="1" parent="1">
          <mxGeometry x="-170" y="280" width="120" height="60" as="geometry" />
        </mxCell>
        <mxCell id="h9IFwPZihJ9QjBAD0U2E-9" value="Name" style="ellipse;whiteSpace=wrap;html=1;fontFamily=Helvetica;fontSize=11;fontColor=default;labelBackgroundColor=default;" vertex="1" parent="1">
          <mxGeometry x="130" y="-20" width="120" height="80" as="geometry" />
        </mxCell>
        <mxCell id="h9IFwPZihJ9QjBAD0U2E-10" value="Age" style="ellipse;whiteSpace=wrap;html=1;fontFamily=Helvetica;fontSize=11;fontColor=default;labelBackgroundColor=default;" vertex="1" parent="1">
          <mxGeometry x="260" y="-20" width="120" height="80" as="geometry" />
        </mxCell>
        <mxCell id="h9IFwPZihJ9QjBAD0U2E-11" value="Profile_Picture" style="ellipse;whiteSpace=wrap;html=1;fontFamily=Helvetica;fontSize=11;fontColor=default;labelBackgroundColor=default;" vertex="1" parent="1">
          <mxGeometry x="390" y="-20" width="120" height="80" as="geometry" />
        </mxCell>
        <mxCell id="h9IFwPZihJ9QjBAD0U2E-17" style="edgeStyle=none;shape=connector;rounded=0;orthogonalLoop=1;jettySize=auto;html=1;exitX=0;exitY=0.5;exitDx=0;exitDy=0;entryX=1;entryY=0.5;entryDx=0;entryDy=0;strokeColor=default;align=center;verticalAlign=middle;fontFamily=Helvetica;fontSize=11;fontColor=default;labelBackgroundColor=default;endArrow=classic;" edge="1" parent="1" source="h9IFwPZihJ9QjBAD0U2E-15" target="h9IFwPZihJ9QjBAD0U2E-4">
          <mxGeometry relative="1" as="geometry" />
        </mxCell>
        <mxCell id="h9IFwPZihJ9QjBAD0U2E-15" value="Has A" style="rhombus;whiteSpace=wrap;html=1;fontFamily=Helvetica;fontSize=11;fontColor=default;labelBackgroundColor=default;" vertex="1" parent="1">
          <mxGeometry y="260" width="80" height="80" as="geometry" />
        </mxCell>
        <mxCell id="h9IFwPZihJ9QjBAD0U2E-18" value="1" style="text;html=1;align=center;verticalAlign=middle;whiteSpace=wrap;rounded=0;fontFamily=Helvetica;fontSize=11;fontColor=default;labelBackgroundColor=default;" vertex="1" parent="1">
          <mxGeometry x="110" y="260" width="60" height="30" as="geometry" />
        </mxCell>
        <mxCell id="h9IFwPZihJ9QjBAD0U2E-19" value="n" style="text;html=1;align=center;verticalAlign=middle;whiteSpace=wrap;rounded=0;fontFamily=Helvetica;fontSize=11;fontColor=default;labelBackgroundColor=default;" vertex="1" parent="1">
          <mxGeometry x="-60" y="270" width="60" height="30" as="geometry" />
        </mxCell>
        <mxCell id="h9IFwPZihJ9QjBAD0U2E-21" value="Biography" style="ellipse;whiteSpace=wrap;html=1;fontFamily=Helvetica;fontSize=11;fontColor=default;labelBackgroundColor=default;" vertex="1" parent="1">
          <mxGeometry x="540" y="210" width="120" height="80" as="geometry" />
        </mxCell>
        <mxCell id="h9IFwPZihJ9QjBAD0U2E-22" value="Title" style="ellipse;whiteSpace=wrap;html=1;fontFamily=Helvetica;fontSize=11;fontColor=default;labelBackgroundColor=default;" vertex="1" parent="1">
          <mxGeometry x="460" y="140" width="120" height="80" as="geometry" />
        </mxCell>
        <mxCell id="h9IFwPZihJ9QjBAD0U2E-26" style="edgeStyle=none;shape=connector;rounded=0;orthogonalLoop=1;jettySize=auto;html=1;exitX=1;exitY=0.5;exitDx=0;exitDy=0;entryX=0;entryY=0.5;entryDx=0;entryDy=0;strokeColor=default;align=center;verticalAlign=middle;fontFamily=Helvetica;fontSize=11;fontColor=default;labelBackgroundColor=default;endArrow=classic;" edge="1" parent="1" source="h9IFwPZihJ9QjBAD0U2E-23" target="h9IFwPZihJ9QjBAD0U2E-24">
          <mxGeometry relative="1" as="geometry" />
        </mxCell>
        <mxCell id="h9IFwPZihJ9QjBAD0U2E-23" value="Gives A" style="rhombus;whiteSpace=wrap;html=1;fontFamily=Helvetica;fontSize=11;fontColor=default;labelBackgroundColor=default;" vertex="1" parent="1">
          <mxGeometry x="150" y="380" width="80" height="80" as="geometry" />
        </mxCell>
        <mxCell id="h9IFwPZihJ9QjBAD0U2E-24" value="Review" style="rounded=0;whiteSpace=wrap;html=1;fontFamily=Helvetica;fontSize=11;fontColor=default;labelBackgroundColor=default;" vertex="1" parent="1">
          <mxGeometry x="260" y="390" width="120" height="60" as="geometry" />
        </mxCell>
        <mxCell id="h9IFwPZihJ9QjBAD0U2E-29" style="edgeStyle=none;shape=connector;rounded=0;orthogonalLoop=1;jettySize=auto;html=1;exitX=0;exitY=0.5;exitDx=0;exitDy=0;entryX=1;entryY=0.5;entryDx=0;entryDy=0;strokeColor=default;align=center;verticalAlign=middle;fontFamily=Helvetica;fontSize=11;fontColor=default;labelBackgroundColor=default;endArrow=classic;" edge="1" parent="1" source="h9IFwPZihJ9QjBAD0U2E-27" target="h9IFwPZihJ9QjBAD0U2E-24">
          <mxGeometry relative="1" as="geometry" />
        </mxCell>
        <mxCell id="h9IFwPZihJ9QjBAD0U2E-27" value="Has A" style="rhombus;whiteSpace=wrap;html=1;fontFamily=Helvetica;fontSize=11;fontColor=default;labelBackgroundColor=default;" vertex="1" parent="1">
          <mxGeometry x="425" y="370" width="80" height="80" as="geometry" />
        </mxCell>
        <mxCell id="h9IFwPZihJ9QjBAD0U2E-33" value="Service" style="rounded=0;whiteSpace=wrap;html=1;fontFamily=Helvetica;fontSize=11;fontColor=default;labelBackgroundColor=default;" vertex="1" parent="1">
          <mxGeometry x="580" y="710" width="120" height="60" as="geometry" />
        </mxCell>
        <mxCell id="h9IFwPZihJ9QjBAD0U2E-40" style="edgeStyle=none;shape=connector;rounded=0;orthogonalLoop=1;jettySize=auto;html=1;entryX=0.5;entryY=0;entryDx=0;entryDy=0;strokeColor=default;align=center;verticalAlign=middle;fontFamily=Helvetica;fontSize=11;fontColor=default;labelBackgroundColor=default;endArrow=classic;exitX=0.5;exitY=1;exitDx=0;exitDy=0;" edge="1" parent="1" source="h9IFwPZihJ9QjBAD0U2E-34" target="h9IFwPZihJ9QjBAD0U2E-33">
          <mxGeometry relative="1" as="geometry">
            <mxPoint x="600" y="530" as="sourcePoint" />
          </mxGeometry>
        </mxCell>
        <mxCell id="h9IFwPZihJ9QjBAD0U2E-34" value="Has A" style="rhombus;whiteSpace=wrap;html=1;fontFamily=Helvetica;fontSize=11;fontColor=default;labelBackgroundColor=default;" vertex="1" parent="1">
          <mxGeometry x="560" y="425" width="80" height="80" as="geometry" />
        </mxCell>
        <mxCell id="h9IFwPZihJ9QjBAD0U2E-37" value="1" style="text;html=1;align=center;verticalAlign=middle;whiteSpace=wrap;rounded=0;fontFamily=Helvetica;fontSize=11;fontColor=default;labelBackgroundColor=default;" vertex="1" parent="1">
          <mxGeometry x="445" y="300" width="60" height="30" as="geometry" />
        </mxCell>
        <mxCell id="h9IFwPZihJ9QjBAD0U2E-38" value="n" style="text;html=1;align=center;verticalAlign=middle;whiteSpace=wrap;rounded=0;fontFamily=Helvetica;fontSize=11;fontColor=default;labelBackgroundColor=default;" vertex="1" parent="1">
          <mxGeometry x="580" y="670" width="60" height="30" as="geometry" />
        </mxCell>
      </root>
    </mxGraphModel>
  </diagram>
</mxfile>
